Coordinates
nRows=283
nColumns=2
inDegrees=yes
endheader
time	ankle_angle_r	
6.32056	 -4.322008	
6.35383	 -4.319747	
6.3871	 -4.316626	
6.42036	 -4.315154	
6.45363	 -4.315593	
6.4869	 -4.315768	
6.52016	 -4.313563	
6.55343	 -4.308843	
6.58669	 -4.305280	
6.61996	 -4.303019	
6.65323	 -4.299115	
6.68649	 -4.296243	
6.71976	 -4.295210	
6.75302	 -4.292471	
6.78629	 -4.290196	
6.81956	 -4.291058	
6.85282	 -4.293395	
6.88609	 -4.297094	
6.91935	 -4.300137	
6.95262	 -4.297640	
6.98589	 -4.290210	
7.01915	 -4.282980	
7.05242	 -4.279830	
7.08569	 -4.281318	
7.11895	 -4.283248	
7.15222	 -4.282178	
7.18548	 -4.280843	
7.21875	 -4.279782	
7.25202	 -4.274742	
7.28528	 -4.266629	
7.31855	 -4.259551	
7.35181	 -4.255309	
7.38508	 -4.255893	
7.41835	 -4.260531	
7.45161	 -4.265750	
7.48488	 -4.270780	
7.51815	 -4.274673	
7.55141	 -4.276459	
7.58468	 -4.277856	
7.61794	 -4.276704	
7.65121	 -4.269540	
7.68448	 -4.260449	
7.71774	 -4.254787	
7.75101	 -4.255179	
7.78427	 -4.262655	
7.81754	 -4.269457	
7.85081	 -4.267193	
7.88407	 -4.262388	
7.91734	 -4.263982	
7.9506	 -4.270117	
7.98387	 -4.275669	
8.01714	 -4.275702	
8.0504	 -4.269106	
8.08367	 -4.263040	
8.11694	 -4.262412	
8.1502	 -4.264862	
8.18347	 -4.268095	
8.21673	 -4.270124	
8.25	 -4.269119	
8.28327	 -4.268528	
8.31653	 -4.273451	
8.3498	 -4.282135	
8.38306	 -4.287824	
8.41633	 -4.287708	
8.4496	 -4.285575	
8.48286	 -4.285509	
8.51613	 -4.287556	
8.5494	 -4.290353	
8.58266	 -4.293184	
8.61593	 -4.295859	
8.64919	 -4.298555	
8.68246	 -4.300183	
8.71573	 -4.300276	
8.74899	 -4.302156	
8.78226	 -4.307528	
8.81552	 -4.313590	
8.84879	 -4.319213	
8.88206	 -4.324097	
8.91532	 -4.325075	
8.94859	 -4.321595	
8.98185	 -4.316702	
9.01512	 -4.312807	
9.04839	 -4.312795	
9.08165	 -4.317406	
9.11492	 -4.323478	
9.14819	 -4.329425	
9.18145	 -4.333261	
9.21472	 -4.331301	
9.24798	 -4.325943	
9.28125	 -4.322018	
9.31452	 -4.319158	
9.34778	 -4.317571	
9.38105	 -4.319030	
9.41431	 -4.322052	
9.44758	 -4.326229	
9.48085	 -4.332309	
9.51411	 -4.336962	
9.54738	 -4.336685	
9.58065	 -4.330992	
9.61391	 -4.321620	
9.64718	 -4.314076	
9.68044	 -4.311507	
9.71371	 -4.309831	
9.74698	 -4.307528	
9.78024	 -4.307362	
9.81351	 -4.307934	
9.84677	 -4.307567	
9.88004	 -4.307669	
9.91331	 -4.307885	
9.94657	 -4.307959	
9.97984	 -4.308485	
10.0131	 -4.308057	
10.0464	 -4.305752	
10.0796	 -4.301114	
10.1129	 -4.295415	
10.1462	 -4.293833	
10.1794	 -4.296262	
10.2127	 -4.297147	
10.246	 -4.296002	
10.2792	 -4.292869	
10.3125	 -4.286121	
10.3458	 -4.279798	
10.379	 -4.278005	
10.4123	 -4.278981	
10.4456	 -4.278595	
10.4788	 -4.272319	
10.5121	 -4.261212	
10.5454	 -4.253783	
10.5786	 -4.254662	
10.6119	 -4.261577	
10.6452	 -4.270836	
10.6784	 -4.277464	
10.7117	 -4.279218	
10.745	 -4.278864	
10.7782	 -4.276612	
10.8115	 -4.271432	
10.8448	 -4.267784	
10.878	 -4.269460	
10.9113	 -4.274481	
10.9446	 -4.278951	
10.9778	 -4.278507	
11.0111	 -4.271913	
11.0444	 -4.264201	
11.0776	 -4.259880	
11.1109	 -4.259569	
11.1442	 -4.262982	
11.1774	 -4.266672	
11.2107	 -4.266210	
11.244	 -4.262934	
11.2772	 -4.259284	
11.3105	 -4.254951	
11.3437	 -4.251973	
11.377	 -4.252408	
11.4103	 -4.255661	
11.4435	 -4.262945	
11.4768	 -4.273741	
11.5101	 -4.282374	
11.5433	 -4.284969	
11.5766	 -4.282346	
11.6099	 -4.277615	
11.6431	 -4.274444	
11.6764	 -4.274394	
11.7097	 -4.275864	
11.7429	 -4.276135	
11.7762	 -4.275678	
11.8095	 -4.278901	
11.8427	 -4.286585	
11.876	 -4.294077	
11.9093	 -4.299363	
11.9425	 -4.302227	
11.9758	 -4.300443	
12.0091	 -4.295505	
12.0423	 -4.291093	
12.0756	 -4.287734	
12.1089	 -4.288112	
12.1421	 -4.295754	
12.1754	 -4.307022	
12.2087	 -4.315195	
12.2419	 -4.317217	
12.2752	 -4.315104	
12.3085	 -4.314187	
12.3417	 -4.314528	
12.375	 -4.312087	
12.4083	 -4.310433	
12.4415	 -4.314270	
12.4748	 -4.318956	
12.5081	 -4.319676	
12.5413	 -4.316852	
12.5746	 -4.311035	
12.6079	 -4.305025	
12.6411	 -4.303864	
12.6744	 -4.308916	
12.7077	 -4.317661	
12.7409	 -4.324181	
12.7742	 -4.323202	
12.8075	 -4.318085	
12.8407	 -4.314710	
12.874	 -4.312670	
12.9073	 -4.310259	
12.9405	 -4.306824	
12.9738	 -4.302704	
13.0071	 -4.303354	
13.0403	 -4.311045	
13.0736	 -4.316755	
13.1069	 -4.314235	
13.1401	 -4.308812	
13.1734	 -4.305496	
13.2067	 -4.304283	
13.2399	 -4.303919	
13.2732	 -4.302866	
13.3065	 -4.303996	
13.3397	 -4.310025	
13.373	 -4.314741	
13.4062	 -4.313732	
13.4395	 -4.310921	
13.4728	 -4.308680	
13.506	 -4.306694	
13.5393	 -4.304770	
13.5726	 -4.302521	
13.6058	 -4.301808	
13.6391	 -4.302819	
13.6724	 -4.301668	
13.7056	 -4.297854	
13.7389	 -4.294162	
13.7722	 -4.291190	
13.8054	 -4.289039	
13.8387	 -4.287618	
13.872	 -4.285591	
13.9052	 -4.283752	
13.9385	 -4.283735	
13.9718	 -4.283796	
14.005	 -4.281051	
14.0383	 -4.275483	
14.0716	 -4.270498	
14.1048	 -4.269223	
14.1381	 -4.270536	
14.1714	 -4.271868	
14.2046	 -4.272451	
14.2379	 -4.271670	
14.2712	 -4.269980	
14.3044	 -4.269268	
14.3377	 -4.268193	
14.371	 -4.264338	
14.4042	 -4.260935	
14.4375	 -4.262522	
14.4708	 -4.268603	
14.504	 -4.275913	
14.5373	 -4.279725	
14.5706	 -4.276174	
14.6038	 -4.267674	
14.6371	 -4.260516	
14.6704	 -4.259832	
14.7036	 -4.267128	
14.7369	 -4.276212	
14.7702	 -4.278899	
14.8034	 -4.276221	
14.8367	 -4.273335	
14.87	 -4.272085	
14.9032	 -4.274048	
14.9365	 -4.278050	
14.9698	 -4.280149	
15.003	 -4.280933	
15.0363	 -4.282187	
15.0696	 -4.282520	
15.1028	 -4.281091	
15.1361	 -4.278179	
15.1694	 -4.275374	
15.2026	 -4.274961	
15.2359	 -4.276223	
15.2692	 -4.278561	
15.3024	 -4.282992	
15.3357	 -4.288041	
15.369	 -4.293021	
15.4022	 -4.298495	
15.4355	 -4.302721	
15.4687	 -4.306070	
15.502	 -4.308805	
15.5353	 -4.307181	
15.5685	 -4.302372	
15.6018	 -4.299966	
15.6351	 -4.302951	
15.6683	 -4.316755	
15.7016	 -4.343491	
